G75*
%MOIN*%
%OFA0B0*%
%FSLAX25Y25*%
%IPPOS*%
%LPD*%
%AMOC8*
5,1,8,0,0,1.08239X$1,22.5*
%
%ADD10R,0.04790X0.00137*%
%ADD11R,0.05890X0.00137*%
%ADD12R,0.04790X0.00137*%
%ADD13R,0.05890X0.00137*%
%ADD14R,0.04800X0.00137*%
%ADD15R,0.06020X0.00137*%
%ADD16R,0.04930X0.00137*%
%ADD17R,0.06020X0.00137*%
%ADD18R,0.04790X0.00137*%
%ADD19R,0.06030X0.00137*%
%ADD20R,0.04930X0.00137*%
%ADD21R,0.04790X0.00137*%
%ADD22R,0.06030X0.00137*%
%ADD23R,0.04800X0.00137*%
%ADD24R,0.06160X0.00137*%
%ADD25R,0.04940X0.00137*%
%ADD26R,0.04940X0.00137*%
%ADD27R,0.06020X0.00137*%
%ADD28R,0.06020X0.00137*%
%ADD29R,0.76580X0.00137*%
%ADD30R,0.76580X0.00137*%
%ADD31R,0.76440X0.00137*%
%ADD32R,0.76570X0.00137*%
%ADD33R,0.76570X0.00137*%
%ADD34R,0.08630X0.00137*%
%ADD35R,0.03290X0.00137*%
%ADD36R,0.02060X0.00137*%
%ADD37R,0.03700X0.00137*%
%ADD38R,0.04660X0.00137*%
%ADD39R,0.03560X0.00137*%
%ADD40R,0.00550X0.00137*%
%ADD41R,0.00820X0.00137*%
%ADD42R,0.03970X0.00137*%
%ADD43R,0.02050X0.00137*%
%ADD44R,0.01920X0.00137*%
%ADD45R,0.03970X0.00137*%
%ADD46R,0.02060X0.00137*%
%ADD47R,0.04250X0.00137*%
%ADD48R,0.03970X0.00137*%
%ADD49R,0.02200X0.00137*%
%ADD50R,0.00820X0.00137*%
%ADD51R,0.00960X0.00137*%
%ADD52R,0.02190X0.00137*%
%ADD53R,0.02050X0.00137*%
%ADD54R,0.04390X0.00137*%
%ADD55R,0.02190X0.00137*%
%ADD56R,0.04520X0.00137*%
%ADD57R,0.05070X0.00137*%
%ADD58R,0.00960X0.00137*%
%ADD59R,0.04520X0.00137*%
%ADD60R,0.04520X0.00137*%
%ADD61R,0.02190X0.00137*%
%ADD62R,0.05210X0.00137*%
%ADD63R,0.04520X0.00137*%
%ADD64R,0.01230X0.00137*%
%ADD65R,0.04940X0.00137*%
%ADD66R,0.04650X0.00137*%
%ADD67R,0.05340X0.00137*%
%ADD68R,0.01370X0.00137*%
%ADD69R,0.00830X0.00137*%
%ADD70R,0.05070X0.00137*%
%ADD71R,0.05480X0.00137*%
%ADD72R,0.01500X0.00137*%
%ADD73R,0.01920X0.00137*%
%ADD74R,0.05470X0.00137*%
%ADD75R,0.05070X0.00137*%
%ADD76R,0.01780X0.00137*%
%ADD77R,0.00820X0.00137*%
%ADD78R,0.02330X0.00137*%
%ADD79R,0.01920X0.00137*%
%ADD80R,0.05610X0.00137*%
%ADD81R,0.02610X0.00137*%
%ADD82R,0.02190X0.00137*%
%ADD83R,0.02330X0.00137*%
%ADD84R,0.02740X0.00137*%
%ADD85R,0.02470X0.00137*%
%ADD86R,0.06440X0.00137*%
%ADD87R,0.02600X0.00137*%
%ADD88R,0.01910X0.00137*%
%ADD89R,0.06580X0.00137*%
%ADD90R,0.02880X0.00137*%
%ADD91R,0.00830X0.00137*%
%ADD92R,0.06850X0.00137*%
%ADD93R,0.02880X0.00137*%
%ADD94R,0.03020X0.00137*%
%ADD95R,0.06990X0.00137*%
%ADD96R,0.03020X0.00137*%
%ADD97R,0.03290X0.00137*%
%ADD98R,0.06990X0.00137*%
%ADD99R,0.03150X0.00137*%
%ADD100R,0.02200X0.00137*%
%ADD101R,0.01090X0.00137*%
%ADD102R,0.00820X0.00137*%
%ADD103R,0.07260X0.00137*%
%ADD104R,0.03150X0.00137*%
%ADD105R,0.01100X0.00137*%
%ADD106R,0.07260X0.00137*%
%ADD107R,0.03290X0.00137*%
%ADD108R,0.07400X0.00137*%
%ADD109R,0.03010X0.00137*%
%ADD110R,0.07390X0.00137*%
%ADD111R,0.02460X0.00137*%
%ADD112R,0.07390X0.00137*%
%ADD113R,0.02870X0.00137*%
%ADD114R,0.02740X0.00137*%
%ADD115R,0.05750X0.00137*%
%ADD116R,0.06170X0.00137*%
%ADD117R,0.05750X0.00137*%
%ADD118R,0.02870X0.00137*%
%ADD119R,0.02870X0.00137*%
%ADD120R,0.02610X0.00137*%
%ADD121R,0.05760X0.00137*%
%ADD122R,0.07540X0.00137*%
%ADD123R,0.02740X0.00137*%
%ADD124R,0.07670X0.00137*%
%ADD125R,0.03280X0.00137*%
%ADD126R,0.02740X0.00137*%
%ADD127R,0.05620X0.00137*%
%ADD128R,0.07670X0.00137*%
%ADD129R,0.02470X0.00137*%
%ADD130R,0.05620X0.00137*%
%ADD131R,0.05610X0.00137*%
%ADD132R,0.05340X0.00137*%
%ADD133R,0.05200X0.00137*%
%ADD134R,0.05200X0.00137*%
%ADD135R,0.03010X0.00137*%
%ADD136R,0.01920X0.00137*%
%ADD137R,0.04940X0.00137*%
%ADD138R,0.02600X0.00137*%
%ADD139R,0.01780X0.00137*%
%ADD140R,0.04930X0.00136*%
%ADD141R,0.04800X0.00136*%
%ADD142R,0.02060X0.00136*%
%ADD143R,0.02200X0.00136*%
%ADD144R,0.02330X0.00136*%
%ADD145R,0.02050X0.00136*%
%ADD146R,0.01650X0.00136*%
%ADD147R,0.01640X0.00136*%
%ADD148R,0.02190X0.00136*%
%ADD149R,0.06020X0.00136*%
%ADD150R,0.05480X0.00137*%
%ADD151R,0.01510X0.00137*%
%ADD152R,0.01500X0.00137*%
%ADD153R,0.01370X0.00137*%
%ADD154R,0.04660X0.00137*%
%ADD155R,0.01240X0.00137*%
%ADD156R,0.04380X0.00137*%
%ADD157R,0.04250X0.00137*%
%ADD158R,0.05060X0.00137*%
%ADD159R,0.01230X0.00137*%
%ADD160R,0.01240X0.00137*%
%ADD161R,0.04110X0.00137*%
%ADD162R,0.01090X0.00137*%
%ADD163R,0.04240X0.00137*%
%ADD164R,0.03570X0.00137*%
%ADD165R,0.03830X0.00137*%
%ADD166R,0.03570X0.00137*%
%ADD167R,0.13420X0.00137*%
%ADD168R,0.15070X0.00137*%
%ADD169R,0.13280X0.00137*%
%ADD170R,0.15350X0.00137*%
%ADD171R,0.13280X0.00137*%
%ADD172R,0.15210X0.00137*%
%ADD173R,0.13150X0.00137*%
%ADD174R,0.15340X0.00137*%
%ADD175R,0.89860X0.00137*%
%ADD176R,0.89720X0.00137*%
%ADD177R,0.89720X0.00137*%
%ADD178R,0.89590X0.00137*%
%ADD179R,0.89460X0.00137*%
%ADD180R,0.12470X0.00137*%
%ADD181R,0.12470X0.00137*%
%ADD182R,0.15340X0.00137*%
%ADD183R,0.12190X0.00137*%
%ADD184R,0.12060X0.00137*%
%ADD185R,0.15200X0.00137*%
%ADD186R,0.11920X0.00137*%
%ADD187R,0.11370X0.00137*%
%ADD188R,0.15200X0.00137*%
%ADD189C,0.00300*%
%ADD190C,0.00200*%
D10*
X0022432Y0067804D03*
X0020382Y0072736D03*
X0019282Y0075339D03*
D11*
X0011062Y0075887D03*
X0089562Y0078215D03*
X0093252Y0068078D03*
X0093392Y0067804D03*
D12*
X0022432Y0067941D03*
D13*
X0090102Y0076709D03*
X0090792Y0074791D03*
X0093252Y0067941D03*
D14*
X0075857Y0073147D03*
X0075857Y0073421D03*
X0074077Y0077393D03*
X0051337Y0072736D03*
X0041477Y0073421D03*
X0025037Y0077530D03*
X0019557Y0074654D03*
X0020107Y0073421D03*
X0020517Y0072462D03*
X0022297Y0068215D03*
X0022297Y0068078D03*
D15*
X0013737Y0073832D03*
X0089627Y0078078D03*
X0090037Y0076846D03*
X0092777Y0069311D03*
X0093187Y0068215D03*
D16*
X0022232Y0068352D03*
X0021272Y0070681D03*
X0020582Y0072188D03*
X0020452Y0072599D03*
X0020312Y0072873D03*
X0020172Y0073284D03*
X0019762Y0074106D03*
X0019622Y0074517D03*
X0019492Y0074791D03*
X0019352Y0075202D03*
X0017982Y0078352D03*
D17*
X0089627Y0077941D03*
X0092777Y0069448D03*
X0093187Y0068352D03*
D18*
X0022162Y0068489D03*
X0022022Y0068900D03*
X0021202Y0070818D03*
X0020652Y0072051D03*
X0020242Y0073147D03*
X0019692Y0074380D03*
D19*
X0089762Y0077530D03*
X0089902Y0077393D03*
X0089902Y0077119D03*
X0090172Y0076572D03*
X0090172Y0076435D03*
X0090312Y0076161D03*
X0090582Y0075476D03*
X0090582Y0075339D03*
X0090722Y0075065D03*
X0090722Y0074928D03*
X0090862Y0074654D03*
X0091132Y0073969D03*
X0091132Y0073832D03*
X0091272Y0073558D03*
X0091272Y0073421D03*
X0091542Y0072736D03*
X0091682Y0072462D03*
X0091682Y0072325D03*
X0092232Y0070955D03*
X0092232Y0070818D03*
X0092502Y0070133D03*
X0092502Y0069996D03*
X0092642Y0069722D03*
X0092642Y0069585D03*
X0092912Y0069037D03*
X0092912Y0068900D03*
X0093052Y0068626D03*
X0093052Y0068489D03*
X0089762Y0077804D03*
D20*
X0074282Y0077119D03*
X0056472Y0077393D03*
X0049212Y0077804D03*
X0025102Y0077393D03*
X0019492Y0074928D03*
X0019352Y0075065D03*
X0019212Y0075476D03*
X0019082Y0075750D03*
X0019082Y0075887D03*
X0018942Y0076161D03*
X0018802Y0076435D03*
X0018802Y0076572D03*
X0018532Y0077119D03*
X0018392Y0077393D03*
X0018392Y0077530D03*
X0018122Y0078078D03*
X0018122Y0078215D03*
X0019762Y0074243D03*
X0019902Y0073969D03*
X0019902Y0073832D03*
X0020312Y0073010D03*
X0020582Y0072325D03*
X0021132Y0070955D03*
X0021272Y0070544D03*
X0021542Y0070133D03*
X0021542Y0069996D03*
X0021682Y0069722D03*
X0021682Y0069585D03*
X0021822Y0069311D03*
X0021952Y0069037D03*
X0022092Y0068626D03*
X0010312Y0076435D03*
X0010172Y0076572D03*
X0009902Y0077119D03*
X0009762Y0077393D03*
X0009762Y0077530D03*
D21*
X0018462Y0077256D03*
X0018872Y0076298D03*
X0019012Y0076024D03*
X0021612Y0069859D03*
X0021752Y0069448D03*
X0022022Y0068763D03*
X0041612Y0073284D03*
D22*
X0089492Y0078352D03*
X0089762Y0077667D03*
X0089902Y0077256D03*
X0090312Y0076298D03*
X0090312Y0076024D03*
X0090862Y0074517D03*
X0091132Y0073695D03*
X0091542Y0072873D03*
X0091542Y0072599D03*
X0091682Y0072188D03*
X0092502Y0070270D03*
X0092642Y0069859D03*
X0093052Y0068763D03*
D23*
X0075857Y0073284D03*
X0074217Y0077256D03*
X0021887Y0069174D03*
X0019967Y0073695D03*
X0019147Y0075613D03*
X0018327Y0077667D03*
X0018187Y0077941D03*
D24*
X0092847Y0069174D03*
D25*
X0058257Y0073284D03*
X0021407Y0070270D03*
D26*
X0021407Y0070407D03*
X0018257Y0077804D03*
X0058257Y0073147D03*
D27*
X0090447Y0075750D03*
X0090447Y0075887D03*
X0090997Y0074380D03*
X0090997Y0074243D03*
X0091407Y0073147D03*
X0091407Y0073010D03*
X0091817Y0072051D03*
X0091817Y0071914D03*
X0092367Y0070544D03*
X0092367Y0070407D03*
D28*
X0092367Y0070681D03*
X0091407Y0073284D03*
X0090997Y0074106D03*
X0090447Y0075613D03*
D29*
X0056957Y0071092D03*
X0056817Y0071366D03*
D30*
X0056817Y0071229D03*
D31*
X0056747Y0071503D03*
D32*
X0056682Y0071640D03*
D33*
X0056682Y0071777D03*
D34*
X0022572Y0071914D03*
D35*
X0027162Y0072599D03*
X0063872Y0074791D03*
D36*
X0064077Y0072873D03*
X0064217Y0072599D03*
X0059697Y0073695D03*
X0059697Y0074106D03*
X0059557Y0074517D03*
X0059147Y0075613D03*
X0058737Y0076298D03*
X0055857Y0074517D03*
X0055037Y0076709D03*
X0051887Y0074791D03*
X0052297Y0073695D03*
X0051337Y0076024D03*
X0036407Y0072599D03*
X0035997Y0073695D03*
X0035857Y0074106D03*
X0035037Y0076024D03*
X0034487Y0077256D03*
X0034217Y0077941D03*
X0031337Y0076024D03*
X0031887Y0074791D03*
X0032297Y0073695D03*
X0032707Y0072873D03*
X0032847Y0072599D03*
X0028327Y0073695D03*
X0028327Y0074106D03*
X0028187Y0074517D03*
X0027367Y0076298D03*
X0025037Y0073695D03*
X0023667Y0076709D03*
X0030517Y0077941D03*
X0075997Y0076709D03*
X0077227Y0073695D03*
X0080927Y0074517D03*
X0081477Y0073284D03*
X0084487Y0074791D03*
X0084627Y0074517D03*
X0083667Y0076709D03*
X0083257Y0077667D03*
X0083117Y0077941D03*
X0079967Y0076709D03*
X0079557Y0077667D03*
D37*
X0042437Y0072599D03*
D38*
X0040037Y0077256D03*
X0049217Y0077941D03*
X0051547Y0072599D03*
D39*
X0058527Y0072599D03*
D40*
X0067022Y0072599D03*
D41*
X0069487Y0072873D03*
X0069627Y0072599D03*
D42*
X0075722Y0072599D03*
X0073532Y0077941D03*
D43*
X0076272Y0076298D03*
X0079832Y0077256D03*
X0080242Y0076024D03*
X0080792Y0074791D03*
X0081062Y0074106D03*
X0081612Y0072873D03*
X0081752Y0072599D03*
X0084902Y0073695D03*
X0084762Y0074106D03*
X0085312Y0072873D03*
X0083942Y0076024D03*
X0083802Y0076298D03*
X0083392Y0077256D03*
X0063942Y0073284D03*
X0063532Y0074106D03*
X0063392Y0074517D03*
X0058462Y0076709D03*
X0055172Y0076298D03*
X0052022Y0074517D03*
X0052162Y0074106D03*
X0051202Y0076298D03*
X0051062Y0076709D03*
X0047502Y0076709D03*
X0036132Y0073284D03*
X0034902Y0076298D03*
X0034762Y0076709D03*
X0034352Y0077667D03*
X0031062Y0076709D03*
X0031202Y0076298D03*
X0030792Y0077256D03*
X0030652Y0077667D03*
X0027092Y0076709D03*
X0032022Y0074517D03*
X0032162Y0074106D03*
X0032572Y0073284D03*
D44*
X0079487Y0077941D03*
X0085377Y0072599D03*
D45*
X0056272Y0077804D03*
X0027092Y0072736D03*
D46*
X0028327Y0073832D03*
X0028327Y0073969D03*
X0028187Y0074380D03*
X0027227Y0076572D03*
X0024627Y0074243D03*
X0023667Y0076435D03*
X0023667Y0076572D03*
X0023667Y0076846D03*
X0030927Y0077119D03*
X0031337Y0076161D03*
X0032297Y0073832D03*
X0032707Y0072736D03*
X0035857Y0073969D03*
X0035587Y0074654D03*
X0035447Y0074928D03*
X0034627Y0076846D03*
X0034627Y0077119D03*
X0034487Y0077393D03*
X0034217Y0077804D03*
X0036407Y0072736D03*
X0048737Y0073832D03*
X0051477Y0075750D03*
X0051337Y0076161D03*
X0051887Y0074654D03*
X0052297Y0073832D03*
X0055037Y0076846D03*
X0058597Y0076572D03*
X0058737Y0076435D03*
X0059697Y0073969D03*
X0059697Y0073832D03*
X0059697Y0073558D03*
X0063667Y0073832D03*
X0067367Y0076435D03*
X0077227Y0073969D03*
X0077227Y0073832D03*
X0080107Y0076435D03*
X0080107Y0076572D03*
X0079967Y0076846D03*
X0079697Y0077393D03*
X0079697Y0077530D03*
X0079557Y0077804D03*
X0083667Y0076572D03*
X0084487Y0074654D03*
X0084627Y0074380D03*
X0085037Y0073558D03*
X0085037Y0073421D03*
X0081477Y0073147D03*
X0081337Y0073421D03*
X0081337Y0073558D03*
D47*
X0075862Y0072736D03*
X0042022Y0072736D03*
D48*
X0058462Y0072736D03*
X0024902Y0077804D03*
D49*
X0027297Y0076435D03*
X0028257Y0074243D03*
X0028257Y0073558D03*
X0024557Y0074380D03*
X0024147Y0075065D03*
X0035927Y0073832D03*
X0048257Y0074654D03*
X0048667Y0073969D03*
X0051407Y0075887D03*
X0055517Y0075339D03*
X0055927Y0074380D03*
X0059627Y0074380D03*
X0059627Y0074243D03*
X0062777Y0076161D03*
X0064147Y0072736D03*
X0075927Y0076846D03*
X0076887Y0075065D03*
X0076887Y0074928D03*
D50*
X0069077Y0073832D03*
X0067027Y0072736D03*
D51*
X0069007Y0073969D03*
X0068877Y0074380D03*
X0068737Y0074654D03*
X0069417Y0073010D03*
X0069557Y0072736D03*
X0033667Y0075065D03*
D52*
X0035382Y0075065D03*
X0032232Y0073969D03*
X0027982Y0074928D03*
X0027982Y0075065D03*
X0024832Y0073969D03*
X0024282Y0074928D03*
X0047982Y0075339D03*
X0052232Y0073969D03*
X0055382Y0075476D03*
X0055382Y0075750D03*
X0059082Y0075750D03*
X0067432Y0076161D03*
X0081682Y0072736D03*
D53*
X0081202Y0073832D03*
X0081202Y0073969D03*
X0081062Y0074243D03*
X0080792Y0074928D03*
X0080242Y0076161D03*
X0079832Y0077119D03*
X0083392Y0077393D03*
X0083802Y0076435D03*
X0083942Y0076161D03*
X0084352Y0074928D03*
X0084762Y0074243D03*
X0084902Y0073832D03*
X0085172Y0073147D03*
X0085172Y0073010D03*
X0085312Y0072736D03*
X0076132Y0076572D03*
X0063942Y0073147D03*
X0063802Y0073421D03*
X0063802Y0073558D03*
X0063532Y0074243D03*
X0062572Y0076435D03*
X0059012Y0075887D03*
X0058872Y0076161D03*
X0055172Y0076161D03*
X0051752Y0075065D03*
X0051612Y0075339D03*
X0051612Y0075476D03*
X0051202Y0076435D03*
X0051062Y0076572D03*
X0052022Y0074380D03*
X0052432Y0073558D03*
X0048462Y0074243D03*
X0047642Y0076161D03*
X0047502Y0076846D03*
X0036272Y0073147D03*
X0036272Y0073010D03*
X0036132Y0073421D03*
X0035722Y0074243D03*
X0035722Y0074380D03*
X0034902Y0076161D03*
X0034902Y0076435D03*
X0034762Y0076572D03*
X0034352Y0077530D03*
X0031202Y0076435D03*
X0031062Y0076572D03*
X0031062Y0076846D03*
X0030792Y0077393D03*
X0030792Y0077530D03*
X0030652Y0077804D03*
X0027502Y0076161D03*
X0027092Y0076846D03*
X0023802Y0076161D03*
X0024902Y0073832D03*
X0032022Y0074380D03*
X0032162Y0074243D03*
X0032432Y0073558D03*
X0032432Y0073421D03*
X0032572Y0073147D03*
D54*
X0027022Y0072873D03*
X0058392Y0072873D03*
D55*
X0056472Y0073695D03*
X0056062Y0074106D03*
X0055792Y0074791D03*
X0055242Y0076024D03*
X0058942Y0076024D03*
X0059352Y0075202D03*
X0059492Y0074791D03*
X0062642Y0076298D03*
X0067022Y0074517D03*
X0076472Y0076024D03*
X0076612Y0075613D03*
X0077022Y0074517D03*
X0077162Y0074106D03*
X0080172Y0076298D03*
X0081272Y0073695D03*
X0051542Y0075613D03*
X0048942Y0073695D03*
X0048122Y0074791D03*
X0047842Y0075613D03*
X0047712Y0076024D03*
X0047572Y0076298D03*
X0036342Y0072873D03*
X0035652Y0074517D03*
X0028122Y0074791D03*
X0027712Y0075613D03*
X0027572Y0076024D03*
X0024692Y0074106D03*
X0024422Y0074517D03*
X0024012Y0075613D03*
X0023872Y0076024D03*
D56*
X0041887Y0072873D03*
D57*
X0051202Y0072873D03*
X0010102Y0076709D03*
D58*
X0061337Y0077941D03*
X0067227Y0077941D03*
X0069147Y0073695D03*
X0069287Y0073284D03*
X0066957Y0072873D03*
D59*
X0073807Y0077667D03*
X0075857Y0072873D03*
X0056407Y0077667D03*
D60*
X0041747Y0073010D03*
X0040107Y0077119D03*
X0039967Y0077393D03*
X0026957Y0073010D03*
X0075857Y0073010D03*
D61*
X0077162Y0073558D03*
X0077162Y0074243D03*
X0077162Y0074380D03*
X0077022Y0074654D03*
X0076752Y0075339D03*
X0076752Y0075476D03*
X0076612Y0075750D03*
X0076472Y0075887D03*
X0076342Y0076161D03*
X0076202Y0076435D03*
X0080862Y0074654D03*
X0080992Y0074380D03*
X0081542Y0073010D03*
X0067022Y0074654D03*
X0064012Y0073010D03*
X0063602Y0073969D03*
X0063462Y0074380D03*
X0063322Y0074654D03*
X0059492Y0074654D03*
X0059352Y0074928D03*
X0059352Y0075065D03*
X0059212Y0075339D03*
X0059212Y0075476D03*
X0056612Y0073558D03*
X0056342Y0073832D03*
X0056202Y0073969D03*
X0056062Y0074243D03*
X0055792Y0074654D03*
X0055652Y0074928D03*
X0055652Y0075065D03*
X0055242Y0075887D03*
X0055102Y0076435D03*
X0055102Y0076572D03*
X0051822Y0074928D03*
X0052092Y0074243D03*
X0050992Y0076846D03*
X0047712Y0075887D03*
X0047712Y0075750D03*
X0047842Y0075476D03*
X0048122Y0074928D03*
X0048392Y0074380D03*
X0047572Y0076435D03*
X0047572Y0076572D03*
X0036062Y0073558D03*
X0032642Y0073010D03*
X0031952Y0074654D03*
X0031822Y0074928D03*
X0031822Y0075065D03*
X0028122Y0074654D03*
X0027842Y0075339D03*
X0027842Y0075476D03*
X0027712Y0075750D03*
X0027572Y0075887D03*
X0024422Y0074654D03*
X0024012Y0075476D03*
X0023872Y0075750D03*
X0023872Y0075887D03*
X0025102Y0073558D03*
D62*
X0026752Y0073421D03*
X0025242Y0077119D03*
X0051132Y0073010D03*
X0056612Y0077119D03*
D63*
X0058327Y0073010D03*
X0039827Y0077530D03*
D64*
X0061752Y0077530D03*
X0066952Y0073010D03*
D65*
X0026887Y0073147D03*
X0020037Y0073558D03*
X0018667Y0076846D03*
X0010037Y0076846D03*
D66*
X0041682Y0073147D03*
D67*
X0049147Y0077393D03*
X0050927Y0073147D03*
X0009697Y0078215D03*
D68*
X0061822Y0077393D03*
X0066882Y0073147D03*
D69*
X0068942Y0074243D03*
X0069352Y0073147D03*
D70*
X0056542Y0077256D03*
X0026822Y0073284D03*
X0025172Y0077256D03*
X0009832Y0077256D03*
X0009692Y0077667D03*
X0009692Y0077941D03*
D71*
X0050857Y0073284D03*
D72*
X0061887Y0077256D03*
X0067367Y0077256D03*
X0066817Y0073284D03*
D73*
X0085107Y0073284D03*
D74*
X0050722Y0073421D03*
D75*
X0058192Y0073421D03*
X0009692Y0077804D03*
X0009692Y0078078D03*
D76*
X0062297Y0076846D03*
X0067367Y0076846D03*
X0066817Y0073421D03*
D77*
X0069217Y0073421D03*
X0069217Y0073558D03*
D78*
X0074212Y0075065D03*
X0062982Y0075887D03*
X0049012Y0073558D03*
X0048052Y0075065D03*
X0040242Y0073558D03*
X0024082Y0075339D03*
D79*
X0058397Y0076846D03*
X0066747Y0073558D03*
X0083597Y0076846D03*
D80*
X0033532Y0075202D03*
X0013942Y0073695D03*
D81*
X0040242Y0073695D03*
X0067502Y0075613D03*
D82*
X0067432Y0076298D03*
X0063732Y0073695D03*
X0055382Y0075613D03*
X0051682Y0075202D03*
X0048532Y0074106D03*
X0047982Y0075202D03*
X0027982Y0075202D03*
X0024282Y0074791D03*
X0023732Y0076298D03*
D83*
X0062842Y0076024D03*
X0066682Y0073695D03*
X0067502Y0076024D03*
X0076822Y0075202D03*
X0076952Y0074791D03*
D84*
X0040307Y0073969D03*
X0040307Y0073832D03*
D85*
X0066612Y0073832D03*
D86*
X0013527Y0073969D03*
D87*
X0041337Y0076846D03*
X0063117Y0075750D03*
X0066547Y0073969D03*
D88*
X0062502Y0076572D03*
X0083462Y0077119D03*
X0084832Y0073969D03*
D89*
X0013327Y0074106D03*
D90*
X0040377Y0074106D03*
X0063527Y0075202D03*
X0066547Y0074106D03*
D91*
X0068942Y0074106D03*
D92*
X0013192Y0074243D03*
D93*
X0040377Y0074243D03*
X0041337Y0076435D03*
X0041337Y0076572D03*
X0081067Y0075065D03*
D94*
X0066477Y0074243D03*
D95*
X0013122Y0074380D03*
D96*
X0040447Y0074380D03*
X0063597Y0075065D03*
D97*
X0066472Y0074380D03*
X0040862Y0075339D03*
X0040722Y0075065D03*
D98*
X0012982Y0074517D03*
D99*
X0040512Y0074517D03*
X0040792Y0075202D03*
X0041202Y0076024D03*
X0067502Y0074791D03*
D100*
X0055517Y0075202D03*
X0048257Y0074517D03*
X0035517Y0074791D03*
X0024147Y0075202D03*
D101*
X0065242Y0074517D03*
D102*
X0068807Y0074517D03*
D103*
X0012847Y0074654D03*
D104*
X0040512Y0074654D03*
X0040652Y0074928D03*
X0040932Y0075476D03*
X0041062Y0075750D03*
X0041062Y0075887D03*
X0063802Y0074928D03*
D105*
X0065107Y0074654D03*
X0067297Y0077804D03*
D106*
X0012707Y0074791D03*
D107*
X0040582Y0074791D03*
D108*
X0012637Y0074928D03*
X0012367Y0075339D03*
D109*
X0041272Y0076161D03*
X0067572Y0075065D03*
X0067572Y0074928D03*
D110*
X0012502Y0075065D03*
D111*
X0084147Y0075065D03*
D112*
X0012502Y0075202D03*
D113*
X0067502Y0075202D03*
D114*
X0074007Y0075202D03*
D115*
X0082502Y0075202D03*
X0033322Y0075613D03*
X0009902Y0078352D03*
D116*
X0090652Y0075202D03*
D117*
X0082232Y0075750D03*
X0033462Y0075476D03*
X0033462Y0075339D03*
X0033322Y0075750D03*
D118*
X0063392Y0075339D03*
D119*
X0067502Y0075339D03*
D120*
X0067502Y0075476D03*
X0073942Y0075339D03*
D121*
X0082367Y0075339D03*
X0082367Y0075476D03*
D122*
X0012297Y0075476D03*
D123*
X0063327Y0075476D03*
X0073737Y0075750D03*
X0073737Y0075887D03*
X0073877Y0075476D03*
D124*
X0012232Y0075613D03*
D125*
X0040997Y0075613D03*
D126*
X0063187Y0075613D03*
X0073877Y0075613D03*
D127*
X0082297Y0075613D03*
D128*
X0012092Y0075750D03*
D129*
X0067432Y0075750D03*
X0067432Y0075887D03*
D130*
X0033257Y0075887D03*
D131*
X0082162Y0075887D03*
D132*
X0049147Y0077256D03*
X0010787Y0076024D03*
D133*
X0010587Y0076161D03*
X0049217Y0077530D03*
D134*
X0010447Y0076298D03*
D135*
X0041272Y0076298D03*
D136*
X0067437Y0076572D03*
X0083187Y0077804D03*
X0083327Y0077530D03*
D137*
X0018667Y0076709D03*
D138*
X0041337Y0076709D03*
D139*
X0062297Y0076709D03*
X0067367Y0076709D03*
D140*
X0009902Y0076983D03*
D141*
X0018597Y0076983D03*
D142*
X0023667Y0076983D03*
X0030927Y0076983D03*
X0034627Y0076983D03*
X0050927Y0076983D03*
X0055037Y0076983D03*
X0058327Y0076983D03*
D143*
X0026887Y0076983D03*
D144*
X0041342Y0076983D03*
D145*
X0047502Y0076983D03*
X0079832Y0076983D03*
X0083532Y0076983D03*
D146*
X0062092Y0076983D03*
D147*
X0067437Y0076983D03*
D148*
X0075792Y0076983D03*
D149*
X0090037Y0076983D03*
D150*
X0049217Y0077119D03*
D151*
X0062022Y0077119D03*
D152*
X0067367Y0077119D03*
D153*
X0067302Y0077393D03*
D154*
X0074007Y0077530D03*
X0056477Y0077530D03*
D155*
X0067367Y0077530D03*
D156*
X0024967Y0077667D03*
D157*
X0039692Y0077667D03*
D158*
X0049147Y0077667D03*
D159*
X0061612Y0077667D03*
D160*
X0067367Y0077667D03*
D161*
X0039492Y0077804D03*
D162*
X0061542Y0077804D03*
D163*
X0073667Y0077804D03*
D164*
X0024832Y0077941D03*
D165*
X0039352Y0077941D03*
D166*
X0056202Y0077941D03*
D167*
X0013737Y0078489D03*
D168*
X0089352Y0078489D03*
D169*
X0013667Y0078626D03*
D170*
X0089352Y0078626D03*
D171*
X0013667Y0078763D03*
D172*
X0088872Y0079859D03*
X0089282Y0078763D03*
D173*
X0013602Y0078900D03*
D174*
X0088667Y0080407D03*
X0089217Y0078900D03*
D175*
X0051957Y0079037D03*
D176*
X0051887Y0079174D03*
D177*
X0051887Y0079311D03*
D178*
X0051952Y0079448D03*
D179*
X0051887Y0079585D03*
X0051887Y0079722D03*
D180*
X0013532Y0079859D03*
D181*
X0013532Y0079996D03*
D182*
X0088807Y0079996D03*
X0088807Y0080133D03*
D183*
X0013532Y0080133D03*
D184*
X0013597Y0080270D03*
D185*
X0088737Y0080270D03*
D186*
X0013667Y0080407D03*
D187*
X0013802Y0080544D03*
D188*
X0088597Y0080544D03*
D189*
X0038827Y0027985D02*
X0036892Y0027985D01*
X0036892Y0028469D01*
X0037376Y0028952D01*
X0038343Y0028952D01*
X0038827Y0028469D01*
X0038827Y0027501D01*
X0038343Y0027017D01*
X0037376Y0027017D01*
X0039838Y0027017D02*
X0041290Y0027017D01*
X0041773Y0027501D01*
X0041773Y0028469D01*
X0041290Y0028952D01*
X0039838Y0028952D01*
X0042778Y0028952D02*
X0043261Y0028952D01*
X0044229Y0027985D01*
X0044229Y0028952D02*
X0044229Y0027017D01*
X0045240Y0027017D02*
X0045240Y0028952D01*
X0047175Y0028952D02*
X0047175Y0027501D01*
X0046692Y0027017D01*
X0045240Y0027017D01*
X0045028Y0024225D02*
X0045028Y0022290D01*
X0045028Y0023257D02*
X0044061Y0024225D01*
X0043577Y0024225D01*
X0042573Y0023741D02*
X0042573Y0022773D01*
X0042089Y0022290D01*
X0041122Y0022290D01*
X0040638Y0023257D02*
X0042573Y0023257D01*
X0042573Y0023741D02*
X0042089Y0024225D01*
X0041122Y0024225D01*
X0040638Y0023741D01*
X0040638Y0023257D01*
X0046040Y0023257D02*
X0047491Y0023257D01*
X0047975Y0022773D01*
X0047491Y0022290D01*
X0046040Y0022290D01*
X0046040Y0023741D01*
X0046524Y0024225D01*
X0047491Y0024225D01*
X0048986Y0024225D02*
X0048986Y0022773D01*
X0049470Y0022290D01*
X0049954Y0022773D01*
X0050438Y0022290D01*
X0050921Y0022773D01*
X0050921Y0024225D01*
X0051933Y0024225D02*
X0053384Y0024225D01*
X0053868Y0023741D01*
X0053868Y0022773D01*
X0053384Y0022290D01*
X0051933Y0022290D01*
X0051933Y0025192D01*
X0051617Y0027017D02*
X0052585Y0027017D01*
X0053068Y0027501D01*
X0052585Y0028469D02*
X0051617Y0028469D01*
X0051133Y0027985D01*
X0051133Y0027501D01*
X0051617Y0027017D01*
X0050122Y0027501D02*
X0049638Y0027017D01*
X0048671Y0027017D01*
X0048187Y0027501D01*
X0048187Y0028469D01*
X0048671Y0028952D01*
X0049638Y0028952D01*
X0050122Y0028469D01*
X0050122Y0027501D01*
X0051133Y0029436D02*
X0051617Y0029920D01*
X0052585Y0029920D01*
X0053068Y0029436D01*
X0053068Y0028952D01*
X0052585Y0028469D01*
X0057026Y0028469D02*
X0057026Y0027017D01*
X0057026Y0028469D02*
X0057510Y0028952D01*
X0058961Y0028952D01*
X0058961Y0027017D01*
X0059973Y0027985D02*
X0061908Y0027985D01*
X0061908Y0028469D02*
X0061424Y0028952D01*
X0060457Y0028952D01*
X0059973Y0028469D01*
X0059973Y0027985D01*
X0060457Y0027017D02*
X0061424Y0027017D01*
X0061908Y0027501D01*
X0061908Y0028469D01*
X0062919Y0028469D02*
X0063403Y0028952D01*
X0064854Y0028952D01*
X0064854Y0026050D01*
X0064854Y0027017D02*
X0063403Y0027017D01*
X0062919Y0027501D01*
X0062919Y0028469D01*
X0065866Y0027501D02*
X0065866Y0029436D01*
X0066350Y0029920D01*
X0067317Y0029920D01*
X0067801Y0029436D01*
X0067801Y0027501D01*
X0067317Y0027017D01*
X0066350Y0027017D01*
X0065866Y0027501D01*
X0062216Y0025192D02*
X0062216Y0022290D01*
X0062216Y0023741D02*
X0060281Y0023741D01*
X0059270Y0022773D02*
X0058786Y0022290D01*
X0057335Y0022290D01*
X0057335Y0023741D01*
X0057819Y0024225D01*
X0058786Y0024225D01*
X0058786Y0023257D02*
X0057335Y0023257D01*
X0056323Y0023257D02*
X0055356Y0024225D01*
X0054872Y0024225D01*
X0056323Y0024225D02*
X0056323Y0022290D01*
X0058786Y0023257D02*
X0059270Y0022773D01*
X0060281Y0022290D02*
X0060281Y0025192D01*
X0038554Y0064976D02*
X0038554Y0068980D01*
X0036552Y0068980D01*
X0035885Y0068312D01*
X0035885Y0066978D01*
X0036552Y0066311D01*
X0038554Y0066311D01*
X0039844Y0066978D02*
X0039844Y0068312D01*
X0040511Y0068980D01*
X0041846Y0068980D01*
X0042513Y0068312D01*
X0042513Y0066978D01*
X0041846Y0066311D01*
X0040511Y0066311D01*
X0039844Y0066978D01*
X0043804Y0066311D02*
X0043804Y0068312D01*
X0044471Y0068980D01*
X0045805Y0068980D01*
X0046473Y0068312D01*
X0047763Y0067645D02*
X0047763Y0066978D01*
X0048430Y0066311D01*
X0049765Y0066311D01*
X0050432Y0066978D01*
X0051722Y0066311D02*
X0053724Y0066311D01*
X0054391Y0066978D01*
X0054391Y0068312D01*
X0053724Y0068980D01*
X0051722Y0068980D01*
X0050432Y0068980D02*
X0049765Y0068312D01*
X0048430Y0068312D01*
X0047763Y0067645D01*
X0046473Y0066311D02*
X0046473Y0070314D01*
X0047763Y0069647D02*
X0048430Y0070314D01*
X0049765Y0070314D01*
X0050432Y0069647D01*
X0050432Y0068980D01*
X0051722Y0070314D02*
X0051722Y0066311D01*
X0055682Y0066978D02*
X0055682Y0068312D01*
X0056349Y0068980D01*
X0057683Y0068980D01*
X0058351Y0068312D01*
X0058351Y0066978D01*
X0057683Y0066311D01*
X0056349Y0066311D01*
X0055682Y0066978D01*
X0059641Y0066311D02*
X0059641Y0070314D01*
X0060976Y0068980D01*
X0062310Y0070314D01*
X0062310Y0066311D01*
X0063600Y0067645D02*
X0066269Y0067645D01*
X0066269Y0066978D02*
X0066269Y0068312D01*
X0065602Y0068980D01*
X0064268Y0068980D01*
X0063600Y0068312D01*
X0063600Y0067645D01*
X0064268Y0066311D02*
X0065602Y0066311D01*
X0066269Y0066978D01*
X0067560Y0066311D02*
X0067560Y0068312D01*
X0068227Y0068980D01*
X0069562Y0068980D01*
X0070229Y0068312D01*
X0070229Y0066311D02*
X0070229Y0070314D01*
X0071519Y0070314D02*
X0074188Y0070314D01*
X0072854Y0070314D02*
X0072854Y0066311D01*
X0075501Y0066311D02*
X0076168Y0066311D01*
X0076168Y0066978D01*
X0075501Y0066978D01*
X0075501Y0066311D01*
X0077458Y0066978D02*
X0077458Y0068980D01*
X0077458Y0066978D02*
X0078125Y0066311D01*
X0078793Y0066978D01*
X0079460Y0066311D01*
X0080127Y0066978D01*
X0080127Y0068980D01*
X0081418Y0068980D02*
X0081418Y0066978D01*
X0082085Y0066311D01*
X0082752Y0066978D01*
X0083419Y0066311D01*
X0084087Y0066978D01*
X0084087Y0068980D01*
X0085377Y0068980D02*
X0085377Y0066978D01*
X0086044Y0066311D01*
X0086711Y0066978D01*
X0087379Y0066311D01*
X0088046Y0066978D01*
X0088046Y0068980D01*
X0034594Y0066978D02*
X0034594Y0066311D01*
X0033927Y0066311D01*
X0033927Y0066978D01*
X0034594Y0066978D01*
X0032615Y0066978D02*
X0031947Y0066311D01*
X0029946Y0066311D01*
X0028655Y0066978D02*
X0027988Y0066311D01*
X0026654Y0066311D01*
X0025986Y0066978D01*
X0025986Y0068312D01*
X0026654Y0068980D01*
X0027988Y0068980D01*
X0028655Y0068312D01*
X0028655Y0066978D01*
X0029946Y0068980D02*
X0031947Y0068980D01*
X0032615Y0068312D01*
X0032615Y0066978D01*
D190*
X0050582Y0049884D02*
X0051182Y0049934D01*
X0052332Y0049934D01*
X0052832Y0049884D01*
X0053232Y0047484D01*
X0053982Y0047234D01*
X0054482Y0047034D01*
X0055182Y0046634D01*
X0057182Y0048084D01*
X0057632Y0047734D01*
X0058132Y0047234D01*
X0058532Y0046784D01*
X0058782Y0046534D01*
X0057382Y0044484D01*
X0057682Y0043984D01*
X0057982Y0043334D01*
X0058132Y0042784D01*
X0058282Y0042434D01*
X0060732Y0042034D01*
X0060732Y0039834D01*
X0058282Y0039434D01*
X0058082Y0038734D01*
X0057932Y0038234D01*
X0057732Y0037834D01*
X0057382Y0037234D01*
X0058832Y0035234D01*
X0058432Y0034784D01*
X0058082Y0034434D01*
X0057632Y0034034D01*
X0057282Y0033734D01*
X0055232Y0035134D01*
X0054082Y0034534D01*
X0052682Y0038534D01*
X0053179Y0038783D01*
X0053612Y0039132D01*
X0053959Y0039566D01*
X0054206Y0040064D01*
X0054340Y0040604D01*
X0054356Y0041159D01*
X0054252Y0041705D01*
X0054034Y0042216D01*
X0053711Y0042669D01*
X0053299Y0043042D01*
X0052816Y0043318D01*
X0052286Y0043485D01*
X0051732Y0043534D01*
X0051197Y0043468D01*
X0050686Y0043295D01*
X0050221Y0043020D01*
X0049822Y0042657D01*
X0049505Y0042220D01*
X0049284Y0041728D01*
X0049168Y0041201D01*
X0049162Y0040661D01*
X0049266Y0040132D01*
X0049476Y0039634D01*
X0049783Y0039190D01*
X0050174Y0038818D01*
X0050632Y0038534D01*
X0049082Y0034634D01*
X0048482Y0034884D01*
X0047882Y0035284D01*
X0045882Y0033884D01*
X0045482Y0034234D01*
X0045132Y0034584D01*
X0044732Y0035034D01*
X0044382Y0035484D01*
X0045832Y0037584D01*
X0045482Y0038184D01*
X0045282Y0038784D01*
X0045082Y0039584D01*
X0042632Y0040034D01*
X0042632Y0041184D01*
X0042682Y0041734D01*
X0042732Y0042234D01*
X0045182Y0042684D01*
X0045382Y0043334D01*
X0045632Y0043884D01*
X0045982Y0044484D01*
X0046032Y0044584D01*
X0044632Y0046534D01*
X0045032Y0047034D01*
X0045532Y0047534D01*
X0045932Y0047884D01*
X0046282Y0048134D01*
X0048332Y0046684D01*
X0048782Y0046934D01*
X0049232Y0047134D01*
X0049682Y0047334D01*
X0050132Y0047434D01*
X0050582Y0049884D01*
X0050569Y0049810D02*
X0052845Y0049810D01*
X0052878Y0049611D02*
X0050532Y0049611D01*
X0050496Y0049413D02*
X0052911Y0049413D01*
X0052944Y0049214D02*
X0050459Y0049214D01*
X0050423Y0049016D02*
X0052977Y0049016D01*
X0053010Y0048817D02*
X0050386Y0048817D01*
X0050350Y0048619D02*
X0053043Y0048619D01*
X0053076Y0048420D02*
X0050313Y0048420D01*
X0050277Y0048222D02*
X0053109Y0048222D01*
X0053142Y0048023D02*
X0050241Y0048023D01*
X0050204Y0047825D02*
X0053176Y0047825D01*
X0053209Y0047626D02*
X0050168Y0047626D01*
X0050104Y0047428D02*
X0053401Y0047428D01*
X0053994Y0047229D02*
X0049447Y0047229D01*
X0049000Y0047031D02*
X0054488Y0047031D01*
X0054835Y0046832D02*
X0048599Y0046832D01*
X0048123Y0046832D02*
X0044871Y0046832D01*
X0044712Y0046634D02*
X0058683Y0046634D01*
X0058715Y0046435D02*
X0044703Y0046435D01*
X0044846Y0046237D02*
X0058579Y0046237D01*
X0058444Y0046038D02*
X0044988Y0046038D01*
X0045131Y0045840D02*
X0058308Y0045840D01*
X0058173Y0045641D02*
X0045273Y0045641D01*
X0045416Y0045443D02*
X0058037Y0045443D01*
X0057901Y0045244D02*
X0045558Y0045244D01*
X0045701Y0045046D02*
X0057766Y0045046D01*
X0057630Y0044847D02*
X0045843Y0044847D01*
X0045986Y0044649D02*
X0057495Y0044649D01*
X0057403Y0044450D02*
X0045963Y0044450D01*
X0045847Y0044251D02*
X0057522Y0044251D01*
X0057641Y0044053D02*
X0045731Y0044053D01*
X0045619Y0043854D02*
X0057742Y0043854D01*
X0057834Y0043656D02*
X0045529Y0043656D01*
X0045438Y0043457D02*
X0051165Y0043457D01*
X0050625Y0043259D02*
X0045359Y0043259D01*
X0045298Y0043060D02*
X0050289Y0043060D01*
X0050047Y0042862D02*
X0045237Y0042862D01*
X0045071Y0042663D02*
X0049828Y0042663D01*
X0049682Y0042465D02*
X0043990Y0042465D01*
X0042909Y0042266D02*
X0049538Y0042266D01*
X0049436Y0042068D02*
X0042716Y0042068D01*
X0042696Y0041869D02*
X0049347Y0041869D01*
X0049271Y0041671D02*
X0042677Y0041671D01*
X0042659Y0041472D02*
X0049228Y0041472D01*
X0049184Y0041274D02*
X0042640Y0041274D01*
X0042632Y0041075D02*
X0049167Y0041075D01*
X0049164Y0040877D02*
X0042632Y0040877D01*
X0042632Y0040678D02*
X0049162Y0040678D01*
X0049198Y0040480D02*
X0042632Y0040480D01*
X0042632Y0040281D02*
X0049237Y0040281D01*
X0049287Y0040083D02*
X0042632Y0040083D01*
X0043447Y0039884D02*
X0049370Y0039884D01*
X0049454Y0039686D02*
X0044528Y0039686D01*
X0045106Y0039487D02*
X0049578Y0039487D01*
X0049715Y0039289D02*
X0045156Y0039289D01*
X0045206Y0039090D02*
X0049888Y0039090D01*
X0050097Y0038892D02*
X0045255Y0038892D01*
X0045313Y0038693D02*
X0050376Y0038693D01*
X0050617Y0038495D02*
X0045379Y0038495D01*
X0045445Y0038296D02*
X0050538Y0038296D01*
X0050459Y0038098D02*
X0045533Y0038098D01*
X0045648Y0037899D02*
X0050380Y0037899D01*
X0050301Y0037701D02*
X0045764Y0037701D01*
X0045776Y0037502D02*
X0050222Y0037502D01*
X0050143Y0037304D02*
X0045639Y0037304D01*
X0045502Y0037105D02*
X0050064Y0037105D01*
X0049986Y0036907D02*
X0045365Y0036907D01*
X0045228Y0036708D02*
X0049907Y0036708D01*
X0049828Y0036510D02*
X0045090Y0036510D01*
X0044953Y0036311D02*
X0049749Y0036311D01*
X0049670Y0036113D02*
X0044816Y0036113D01*
X0044679Y0035914D02*
X0049591Y0035914D01*
X0049512Y0035716D02*
X0044542Y0035716D01*
X0044405Y0035517D02*
X0049433Y0035517D01*
X0049354Y0035318D02*
X0044511Y0035318D01*
X0044665Y0035120D02*
X0047648Y0035120D01*
X0047365Y0034921D02*
X0044832Y0034921D01*
X0045009Y0034723D02*
X0047081Y0034723D01*
X0046797Y0034524D02*
X0045192Y0034524D01*
X0045390Y0034326D02*
X0046514Y0034326D01*
X0046230Y0034127D02*
X0045604Y0034127D01*
X0045831Y0033929D02*
X0045947Y0033929D01*
X0048128Y0035120D02*
X0049276Y0035120D01*
X0049197Y0034921D02*
X0048426Y0034921D01*
X0048869Y0034723D02*
X0049118Y0034723D01*
X0053113Y0037304D02*
X0057423Y0037304D01*
X0057476Y0037105D02*
X0053182Y0037105D01*
X0053252Y0036907D02*
X0057620Y0036907D01*
X0057764Y0036708D02*
X0053321Y0036708D01*
X0053391Y0036510D02*
X0057907Y0036510D01*
X0058051Y0036311D02*
X0053460Y0036311D01*
X0053530Y0036113D02*
X0058195Y0036113D01*
X0058339Y0035914D02*
X0053599Y0035914D01*
X0053669Y0035716D02*
X0058483Y0035716D01*
X0058627Y0035517D02*
X0053738Y0035517D01*
X0053808Y0035318D02*
X0058771Y0035318D01*
X0058731Y0035120D02*
X0055253Y0035120D01*
X0055206Y0035120D02*
X0053877Y0035120D01*
X0053947Y0034921D02*
X0054825Y0034921D01*
X0054445Y0034723D02*
X0054016Y0034723D01*
X0055543Y0034921D02*
X0058555Y0034921D01*
X0058371Y0034723D02*
X0055834Y0034723D01*
X0056125Y0034524D02*
X0058173Y0034524D01*
X0057961Y0034326D02*
X0056415Y0034326D01*
X0056706Y0034127D02*
X0057737Y0034127D01*
X0057510Y0033929D02*
X0056997Y0033929D01*
X0057539Y0037502D02*
X0053043Y0037502D01*
X0052974Y0037701D02*
X0057655Y0037701D01*
X0057765Y0037899D02*
X0052905Y0037899D01*
X0052835Y0038098D02*
X0057864Y0038098D01*
X0057951Y0038296D02*
X0052766Y0038296D01*
X0052696Y0038495D02*
X0058011Y0038495D01*
X0058070Y0038693D02*
X0053001Y0038693D01*
X0053314Y0038892D02*
X0058127Y0038892D01*
X0058184Y0039090D02*
X0053560Y0039090D01*
X0053737Y0039289D02*
X0058241Y0039289D01*
X0058609Y0039487D02*
X0053896Y0039487D01*
X0054019Y0039686D02*
X0059825Y0039686D01*
X0060732Y0039884D02*
X0054117Y0039884D01*
X0054210Y0040083D02*
X0060732Y0040083D01*
X0060732Y0040281D02*
X0054260Y0040281D01*
X0054309Y0040480D02*
X0060732Y0040480D01*
X0060732Y0040678D02*
X0054342Y0040678D01*
X0054348Y0040877D02*
X0060732Y0040877D01*
X0060732Y0041075D02*
X0054353Y0041075D01*
X0054334Y0041274D02*
X0060732Y0041274D01*
X0060732Y0041472D02*
X0054296Y0041472D01*
X0054258Y0041671D02*
X0060732Y0041671D01*
X0060732Y0041869D02*
X0054182Y0041869D01*
X0054097Y0042068D02*
X0060524Y0042068D01*
X0059309Y0042266D02*
X0053998Y0042266D01*
X0053856Y0042465D02*
X0058269Y0042465D01*
X0058184Y0042663D02*
X0053715Y0042663D01*
X0053498Y0042862D02*
X0058111Y0042862D01*
X0058057Y0043060D02*
X0053267Y0043060D01*
X0052920Y0043259D02*
X0058003Y0043259D01*
X0057925Y0043457D02*
X0052373Y0043457D01*
X0055456Y0046832D02*
X0058489Y0046832D01*
X0058313Y0047031D02*
X0055730Y0047031D01*
X0056003Y0047229D02*
X0058137Y0047229D01*
X0057939Y0047428D02*
X0056277Y0047428D01*
X0056551Y0047626D02*
X0057740Y0047626D01*
X0057516Y0047825D02*
X0056825Y0047825D01*
X0057099Y0048023D02*
X0057260Y0048023D01*
X0047842Y0047031D02*
X0045030Y0047031D01*
X0045228Y0047229D02*
X0047561Y0047229D01*
X0047281Y0047428D02*
X0045426Y0047428D01*
X0045638Y0047626D02*
X0047000Y0047626D01*
X0046720Y0047825D02*
X0045865Y0047825D01*
X0046127Y0048023D02*
X0046439Y0048023D01*
M02*
