G75*
%MOIN*%
%OFA0B0*%
%FSLAX25Y25*%
%IPPOS*%
%LPD*%
%AMOC8*
5,1,8,0,0,1.08239X$1,22.5*
%
%ADD10R,0.05800X0.10800*%
D10*
X0089375Y0118065D03*
X0092375Y0118065D03*
X0092375Y0128065D03*
X0089375Y0128065D03*
X0080875Y0126815D03*
X0078875Y0126815D03*
X0080875Y0135065D03*
X0078875Y0135315D03*
X0078875Y0140315D03*
X0080875Y0140315D03*
X0070875Y0140315D03*
X0068875Y0140315D03*
X0068875Y0135315D03*
X0070875Y0135065D03*
X0070875Y0126815D03*
X0068875Y0126815D03*
X0060875Y0126815D03*
X0058875Y0126815D03*
X0050875Y0126815D03*
X0048875Y0126815D03*
X0050875Y0135065D03*
X0048875Y0135315D03*
X0048875Y0140315D03*
X0050875Y0140315D03*
X0058875Y0140315D03*
X0060875Y0140315D03*
X0060875Y0135065D03*
X0058875Y0135315D03*
X0040875Y0135065D03*
X0038875Y0135315D03*
X0038875Y0140315D03*
X0040875Y0140315D03*
X0030875Y0140315D03*
X0028875Y0140315D03*
X0028875Y0135315D03*
X0030875Y0135065D03*
X0030875Y0126815D03*
X0028875Y0126815D03*
X0020875Y0126815D03*
X0018875Y0126815D03*
X0012375Y0127065D03*
X0012375Y0134315D03*
X0012375Y0140315D03*
X0018875Y0140315D03*
X0020875Y0140315D03*
X0020875Y0135065D03*
X0018875Y0135315D03*
X0038875Y0126815D03*
X0040875Y0126815D03*
M02*
