G75*
%MOIN*%
%OFA0B0*%
%FSLAX25Y25*%
%IPPOS*%
%LPD*%
%AMOC8*
5,1,8,0,0,1.08239X$1,22.5*
%
%ADD10C,0.00300*%
%ADD11C,0.01100*%
%ADD12C,0.00400*%
D10*
X0010031Y0020302D02*
X0011265Y0020302D01*
X0011882Y0020919D01*
X0010031Y0020302D02*
X0009413Y0020919D01*
X0009413Y0023388D01*
X0010031Y0024005D01*
X0011265Y0024005D01*
X0011882Y0023388D01*
X0018063Y0022771D02*
X0019298Y0024005D01*
X0019298Y0020302D01*
X0020532Y0020302D02*
X0018063Y0020302D01*
X0021747Y0020919D02*
X0022364Y0020302D01*
X0023598Y0020302D01*
X0024215Y0020919D01*
X0024215Y0021537D01*
X0023598Y0022154D01*
X0022981Y0022154D01*
X0023598Y0022154D02*
X0024215Y0022771D01*
X0024215Y0023388D01*
X0023598Y0024005D01*
X0022364Y0024005D01*
X0021747Y0023388D01*
X0027913Y0022771D02*
X0029148Y0024005D01*
X0029148Y0020302D01*
X0030382Y0020302D02*
X0027913Y0020302D01*
X0031597Y0020919D02*
X0032214Y0020302D01*
X0033448Y0020302D01*
X0034065Y0020919D01*
X0034065Y0021537D01*
X0033448Y0022154D01*
X0031597Y0022154D01*
X0031597Y0020919D01*
X0031597Y0022154D02*
X0032831Y0023388D01*
X0034065Y0024005D01*
X0039663Y0023638D02*
X0040281Y0024255D01*
X0041515Y0024255D01*
X0042132Y0023638D01*
X0042132Y0023021D01*
X0039663Y0020552D01*
X0042132Y0020552D01*
X0049913Y0020552D02*
X0052382Y0020552D01*
X0051148Y0020552D02*
X0051148Y0024255D01*
X0049913Y0023021D01*
X0059413Y0023638D02*
X0059413Y0021169D01*
X0060031Y0020552D01*
X0061265Y0020552D01*
X0061882Y0021169D01*
X0061882Y0022404D01*
X0060648Y0022404D01*
X0061882Y0023638D02*
X0061265Y0024255D01*
X0060031Y0024255D01*
X0059413Y0023638D01*
X0069913Y0023388D02*
X0070531Y0024005D01*
X0071765Y0024005D01*
X0072382Y0023388D01*
X0072382Y0022771D01*
X0071765Y0022154D01*
X0072382Y0021537D01*
X0072382Y0020919D01*
X0071765Y0020302D01*
X0070531Y0020302D01*
X0069913Y0020919D01*
X0071148Y0022154D02*
X0071765Y0022154D01*
X0078413Y0023021D02*
X0079648Y0024255D01*
X0079648Y0020552D01*
X0080882Y0020552D02*
X0078413Y0020552D01*
X0082097Y0020552D02*
X0084565Y0020552D01*
X0083331Y0020552D02*
X0083331Y0024255D01*
X0082097Y0023021D01*
X0088163Y0023021D02*
X0089398Y0024255D01*
X0089398Y0020552D01*
X0090632Y0020552D02*
X0088163Y0020552D01*
X0091847Y0022404D02*
X0094315Y0022404D01*
X0093698Y0024255D02*
X0093698Y0020552D01*
X0091847Y0022404D02*
X0093698Y0024255D01*
D11*
X0089806Y0076781D02*
X0085469Y0076781D01*
X0089806Y0081118D01*
X0089806Y0082202D01*
X0088721Y0083286D01*
X0086553Y0083286D01*
X0085469Y0082202D01*
X0083054Y0077865D02*
X0081970Y0077865D01*
X0081970Y0076781D01*
X0083054Y0076781D01*
X0083054Y0077865D01*
X0079309Y0076781D02*
X0074972Y0076781D01*
X0079309Y0081118D01*
X0079309Y0082202D01*
X0078224Y0083286D01*
X0076056Y0083286D01*
X0074972Y0082202D01*
X0072311Y0081118D02*
X0070142Y0076781D01*
X0067974Y0081118D01*
X0058479Y0076781D02*
X0056310Y0076781D01*
X0057395Y0076781D02*
X0057395Y0083286D01*
X0056310Y0083286D01*
X0053649Y0080033D02*
X0052565Y0081118D01*
X0050397Y0081118D01*
X0049312Y0080033D01*
X0049312Y0077865D01*
X0050397Y0076781D01*
X0052565Y0076781D01*
X0053649Y0077865D01*
X0053649Y0080033D01*
X0046651Y0080033D02*
X0046651Y0077865D01*
X0045567Y0076781D01*
X0043399Y0076781D01*
X0042314Y0077865D01*
X0042314Y0080033D01*
X0043399Y0081118D01*
X0045567Y0081118D01*
X0046651Y0080033D01*
X0039653Y0083286D02*
X0035316Y0083286D01*
X0037485Y0083286D02*
X0037485Y0076781D01*
X0025658Y0077865D02*
X0025658Y0082202D01*
X0024573Y0083286D01*
X0021320Y0083286D01*
X0021320Y0076781D01*
X0024573Y0076781D01*
X0025658Y0077865D01*
X0018660Y0077865D02*
X0017575Y0076781D01*
X0015407Y0076781D01*
X0014323Y0077865D01*
X0015407Y0080033D02*
X0017575Y0080033D01*
X0018660Y0078949D01*
X0018660Y0077865D01*
X0015407Y0080033D02*
X0014323Y0081118D01*
X0014323Y0082202D01*
X0015407Y0083286D01*
X0017575Y0083286D01*
X0018660Y0082202D01*
D12*
X0016274Y0073275D02*
X0013973Y0073275D01*
X0013973Y0068671D01*
X0016274Y0068671D01*
X0017042Y0069438D01*
X0017042Y0070205D01*
X0016274Y0070973D01*
X0013973Y0070973D01*
X0016274Y0070973D02*
X0017042Y0071740D01*
X0017042Y0072507D01*
X0016274Y0073275D01*
X0018576Y0071740D02*
X0018576Y0069438D01*
X0019344Y0068671D01*
X0021646Y0068671D01*
X0021646Y0067904D02*
X0020878Y0067136D01*
X0020111Y0067136D01*
X0021646Y0067904D02*
X0021646Y0071740D01*
X0023180Y0071740D02*
X0023180Y0070973D01*
X0023948Y0070973D01*
X0023948Y0071740D01*
X0023180Y0071740D01*
X0023180Y0069438D02*
X0023180Y0068671D01*
X0023948Y0068671D01*
X0023948Y0069438D01*
X0023180Y0069438D01*
X0030086Y0068671D02*
X0033156Y0068671D01*
X0034690Y0068671D02*
X0036225Y0068671D01*
X0035457Y0068671D02*
X0035457Y0073275D01*
X0034690Y0073275D01*
X0033156Y0073275D02*
X0030086Y0073275D01*
X0030086Y0068671D01*
X0030086Y0070973D02*
X0031621Y0070973D01*
X0037759Y0070973D02*
X0037759Y0069438D01*
X0038527Y0068671D01*
X0040061Y0068671D01*
X0040829Y0070205D02*
X0037759Y0070205D01*
X0037759Y0070973D02*
X0038527Y0071740D01*
X0040061Y0071740D01*
X0040829Y0070973D01*
X0040829Y0070205D01*
X0042363Y0068671D02*
X0042363Y0071740D01*
X0043131Y0071740D01*
X0043898Y0070973D01*
X0044665Y0071740D01*
X0045433Y0070973D01*
X0045433Y0068671D01*
X0043898Y0068671D02*
X0043898Y0070973D01*
X0046967Y0070973D02*
X0046967Y0069438D01*
X0047735Y0068671D01*
X0049269Y0068671D01*
X0050037Y0070205D02*
X0046967Y0070205D01*
X0046967Y0070973D02*
X0047735Y0071740D01*
X0049269Y0071740D01*
X0050037Y0070973D01*
X0050037Y0070205D01*
X0051571Y0068671D02*
X0051571Y0071740D01*
X0053873Y0071740D01*
X0054641Y0070973D01*
X0054641Y0068671D01*
X0056942Y0069438D02*
X0056942Y0072507D01*
X0056175Y0071740D02*
X0057710Y0071740D01*
X0059244Y0071740D02*
X0060779Y0073275D01*
X0060779Y0068671D01*
X0059244Y0068671D02*
X0062314Y0068671D01*
X0063848Y0069438D02*
X0063848Y0070205D01*
X0064616Y0070973D01*
X0066150Y0070973D01*
X0066918Y0070205D01*
X0066918Y0069438D01*
X0066150Y0068671D01*
X0064616Y0068671D01*
X0063848Y0069438D01*
X0064616Y0070973D02*
X0063848Y0071740D01*
X0063848Y0072507D01*
X0064616Y0073275D01*
X0066150Y0073275D01*
X0066918Y0072507D01*
X0066918Y0071740D01*
X0066150Y0070973D01*
X0068452Y0070973D02*
X0068452Y0073275D01*
X0071522Y0073275D01*
X0073056Y0072507D02*
X0073056Y0071740D01*
X0073824Y0070973D01*
X0076125Y0070973D01*
X0076125Y0072507D02*
X0076125Y0069438D01*
X0075358Y0068671D01*
X0073824Y0068671D01*
X0073056Y0069438D01*
X0071522Y0069438D02*
X0071522Y0070973D01*
X0070754Y0071740D01*
X0069987Y0071740D01*
X0068452Y0070973D01*
X0068452Y0069438D02*
X0069220Y0068671D01*
X0070754Y0068671D01*
X0071522Y0069438D01*
X0073056Y0072507D02*
X0073824Y0073275D01*
X0075358Y0073275D01*
X0076125Y0072507D01*
X0077660Y0072507D02*
X0078427Y0073275D01*
X0079962Y0073275D01*
X0080729Y0072507D01*
X0080729Y0071740D01*
X0077660Y0068671D01*
X0080729Y0068671D01*
X0057710Y0068671D02*
X0056942Y0069438D01*
X0055820Y0043647D02*
X0054285Y0043647D01*
X0053518Y0042880D01*
X0051983Y0042880D02*
X0051983Y0041345D01*
X0051216Y0040578D01*
X0048914Y0040578D01*
X0048914Y0039043D02*
X0048914Y0043647D01*
X0051216Y0043647D01*
X0051983Y0042880D01*
X0050449Y0040578D02*
X0051983Y0039043D01*
X0053518Y0039043D02*
X0056587Y0042113D01*
X0056587Y0042880D01*
X0055820Y0043647D01*
X0056587Y0039043D02*
X0053518Y0039043D01*
X0069387Y0039043D02*
X0072456Y0039043D01*
X0073991Y0039043D02*
X0077060Y0039043D01*
X0075525Y0039043D02*
X0075525Y0043647D01*
X0073991Y0042113D01*
X0069387Y0043647D02*
X0069387Y0039043D01*
X0037022Y0039317D02*
X0033953Y0039317D01*
X0032418Y0039317D02*
X0030884Y0040852D01*
X0031651Y0040852D02*
X0032418Y0041619D01*
X0032418Y0043154D01*
X0031651Y0043921D01*
X0029349Y0043921D01*
X0029349Y0039317D01*
X0029349Y0040852D02*
X0031651Y0040852D01*
X0033953Y0042387D02*
X0035488Y0043921D01*
X0035488Y0039317D01*
M02*
