G75*
%MOIN*%
%OFA0B0*%
%FSLAX25Y25*%
%IPPOS*%
%LPD*%
%AMOC8*
5,1,8,0,0,1.08239X$1,22.5*
%
%ADD10R,0.05118X0.06299*%
%ADD11C,0.07874*%
%ADD12C,0.03569*%
%ADD13C,0.01600*%
%ADD14C,0.02978*%
D10*
X0027971Y0032925D03*
X0035452Y0032925D03*
X0048221Y0032925D03*
X0055702Y0032925D03*
X0068694Y0032925D03*
X0076174Y0032925D03*
D11*
X0072066Y0013000D03*
X0062030Y0013000D03*
X0052381Y0013000D03*
X0042145Y0013000D03*
X0031909Y0013000D03*
X0021673Y0013000D03*
X0012224Y0013000D03*
X0082103Y0013000D03*
X0092206Y0013000D03*
D12*
X0092112Y0012757D03*
X0081857Y0013062D03*
X0071897Y0012972D03*
X0061792Y0012826D03*
X0041912Y0012757D03*
X0031912Y0012757D03*
X0021601Y0012912D03*
X0048108Y0033071D03*
X0060065Y0113367D03*
X0029964Y0113321D03*
D13*
X0012254Y0075718D02*
X0012254Y0012951D01*
X0014654Y0017987D02*
X0014654Y0074723D01*
X0018120Y0078189D01*
X0018795Y0078864D01*
X0019161Y0079747D01*
X0019161Y0103639D01*
X0026416Y0110895D01*
X0027604Y0110895D01*
X0028047Y0110452D01*
X0029291Y0109937D01*
X0030638Y0109937D01*
X0031881Y0110452D01*
X0032324Y0110895D01*
X0057751Y0110895D01*
X0058148Y0110498D01*
X0059392Y0109982D01*
X0060739Y0109982D01*
X0061982Y0110498D01*
X0062934Y0111450D01*
X0063450Y0112693D01*
X0063450Y0114040D01*
X0062934Y0115284D01*
X0061982Y0116236D01*
X0060739Y0116751D01*
X0059392Y0116751D01*
X0058148Y0116236D01*
X0057608Y0115695D01*
X0032377Y0115695D01*
X0031881Y0116190D01*
X0030638Y0116705D01*
X0029291Y0116705D01*
X0028047Y0116190D01*
X0027552Y0115695D01*
X0024945Y0115695D01*
X0024063Y0115329D01*
X0023387Y0114654D01*
X0014726Y0105993D01*
X0014361Y0105111D01*
X0014361Y0081218D01*
X0010681Y0077538D01*
X0010681Y0083925D01*
X0010850Y0083995D01*
X0012200Y0085346D01*
X0012931Y0087110D01*
X0012931Y0106269D01*
X0012200Y0108034D01*
X0010850Y0109384D01*
X0010781Y0109412D01*
X0010781Y0141015D01*
X0081485Y0141015D01*
X0093808Y0129527D01*
X0093808Y0018330D01*
X0093307Y0018537D01*
X0091105Y0018537D01*
X0089069Y0017694D01*
X0087512Y0016136D01*
X0087154Y0015273D01*
X0086797Y0016136D01*
X0085239Y0017694D01*
X0083204Y0018537D01*
X0081001Y0018537D01*
X0078966Y0017694D01*
X0077409Y0016136D01*
X0077085Y0015354D01*
X0076760Y0016136D01*
X0075203Y0017694D01*
X0073168Y0018537D01*
X0070965Y0018537D01*
X0068930Y0017694D01*
X0067372Y0016136D01*
X0067048Y0015354D01*
X0066724Y0016136D01*
X0065167Y0017694D01*
X0063131Y0018537D01*
X0060929Y0018537D01*
X0058894Y0017694D01*
X0057336Y0016136D01*
X0057206Y0015822D01*
X0057075Y0016136D01*
X0055518Y0017694D01*
X0053806Y0018403D01*
X0053806Y0019284D01*
X0053441Y0020166D01*
X0050291Y0023316D01*
X0049616Y0023991D01*
X0048734Y0024356D01*
X0039015Y0024356D01*
X0037271Y0026100D01*
X0037271Y0028176D01*
X0038673Y0028176D01*
X0039611Y0029113D01*
X0039611Y0036738D01*
X0038673Y0037675D01*
X0032230Y0037675D01*
X0031711Y0037157D01*
X0031193Y0037675D01*
X0029397Y0037675D01*
X0029397Y0039072D01*
X0031928Y0041604D01*
X0042350Y0041604D01*
X0044989Y0038965D01*
X0044989Y0037664D01*
X0044062Y0036738D01*
X0044062Y0029113D01*
X0044999Y0028176D01*
X0051443Y0028176D01*
X0051961Y0028694D01*
X0052480Y0028176D01*
X0058923Y0028176D01*
X0059861Y0029113D01*
X0059861Y0030775D01*
X0064535Y0030775D01*
X0064535Y0029113D01*
X0065472Y0028176D01*
X0071915Y0028176D01*
X0072434Y0028694D01*
X0072952Y0028176D01*
X0079396Y0028176D01*
X0080333Y0029113D01*
X0080333Y0036738D01*
X0079396Y0037675D01*
X0072952Y0037675D01*
X0072434Y0037157D01*
X0071915Y0037675D01*
X0065472Y0037675D01*
X0064535Y0036738D01*
X0064535Y0035575D01*
X0059861Y0035575D01*
X0059861Y0036738D01*
X0058923Y0037675D01*
X0052480Y0037675D01*
X0051961Y0037157D01*
X0051443Y0037675D01*
X0049789Y0037675D01*
X0049789Y0040437D01*
X0049423Y0041319D01*
X0048748Y0041994D01*
X0044704Y0046038D01*
X0043822Y0046404D01*
X0030456Y0046404D01*
X0029574Y0046038D01*
X0024962Y0041426D01*
X0024597Y0040544D01*
X0024597Y0037522D01*
X0023812Y0036738D01*
X0023812Y0029113D01*
X0024749Y0028176D01*
X0031193Y0028176D01*
X0031711Y0028694D01*
X0032230Y0028176D01*
X0032471Y0028176D01*
X0032471Y0024628D01*
X0032836Y0023746D01*
X0033511Y0023071D01*
X0036661Y0019922D01*
X0037543Y0019556D01*
X0047263Y0019556D01*
X0049006Y0017813D01*
X0049006Y0017455D01*
X0047687Y0016136D01*
X0047263Y0015113D01*
X0046839Y0016136D01*
X0045282Y0017694D01*
X0043247Y0018537D01*
X0041044Y0018537D01*
X0039009Y0017694D01*
X0037451Y0016136D01*
X0037027Y0015113D01*
X0036603Y0016136D01*
X0035045Y0017694D01*
X0033010Y0018537D01*
X0030808Y0018537D01*
X0028772Y0017694D01*
X0027215Y0016136D01*
X0026791Y0015113D01*
X0026367Y0016136D01*
X0024809Y0017694D01*
X0022774Y0018537D01*
X0020571Y0018537D01*
X0018536Y0017694D01*
X0016979Y0016136D01*
X0016948Y0016063D01*
X0016918Y0016136D01*
X0015360Y0017694D01*
X0014654Y0017987D01*
X0014693Y0017970D02*
X0019203Y0017970D01*
X0017214Y0016372D02*
X0016683Y0016372D01*
X0014654Y0019569D02*
X0037513Y0019569D01*
X0039676Y0017970D02*
X0034378Y0017970D01*
X0036368Y0016372D02*
X0037687Y0016372D01*
X0035415Y0021167D02*
X0014654Y0021167D01*
X0014654Y0022766D02*
X0033817Y0022766D01*
X0032580Y0024364D02*
X0014654Y0024364D01*
X0014654Y0025963D02*
X0032471Y0025963D01*
X0032471Y0027561D02*
X0014654Y0027561D01*
X0014654Y0029160D02*
X0023812Y0029160D01*
X0023812Y0030758D02*
X0014654Y0030758D01*
X0014654Y0032357D02*
X0023812Y0032357D01*
X0023812Y0033956D02*
X0014654Y0033956D01*
X0014654Y0035554D02*
X0023812Y0035554D01*
X0024227Y0037153D02*
X0014654Y0037153D01*
X0014654Y0038751D02*
X0024597Y0038751D01*
X0024597Y0040350D02*
X0014654Y0040350D01*
X0014654Y0041948D02*
X0025484Y0041948D01*
X0027083Y0043547D02*
X0014654Y0043547D01*
X0014654Y0045145D02*
X0028681Y0045145D01*
X0030934Y0044004D02*
X0043344Y0044004D01*
X0047389Y0039959D01*
X0047389Y0033056D01*
X0044062Y0032357D02*
X0039611Y0032357D01*
X0039611Y0030758D02*
X0044062Y0030758D01*
X0044062Y0029160D02*
X0039611Y0029160D01*
X0037271Y0027561D02*
X0093808Y0027561D01*
X0093808Y0025963D02*
X0037408Y0025963D01*
X0039006Y0024364D02*
X0093808Y0024364D01*
X0093808Y0022766D02*
X0050841Y0022766D01*
X0052440Y0021167D02*
X0093808Y0021167D01*
X0093808Y0019569D02*
X0053688Y0019569D01*
X0054851Y0017970D02*
X0059561Y0017970D01*
X0060593Y0017826D02*
X0061844Y0014375D01*
X0061887Y0014159D02*
X0062966Y0017697D01*
X0061992Y0017938D02*
X0061972Y0014892D01*
X0064499Y0017970D02*
X0069597Y0017970D01*
X0067608Y0016372D02*
X0066489Y0016372D01*
X0074536Y0017970D02*
X0079634Y0017970D01*
X0077644Y0016372D02*
X0076525Y0016372D01*
X0084572Y0017970D02*
X0089737Y0017970D01*
X0087747Y0016372D02*
X0086561Y0016372D01*
X0076393Y0027385D02*
X0076414Y0030431D01*
X0076995Y0033102D02*
X0080041Y0033081D01*
X0080333Y0032357D02*
X0093808Y0032357D01*
X0093808Y0030758D02*
X0080333Y0030758D01*
X0080333Y0029160D02*
X0093808Y0029160D01*
X0093808Y0033956D02*
X0080333Y0033956D01*
X0080333Y0035554D02*
X0093808Y0035554D01*
X0093808Y0037153D02*
X0079918Y0037153D01*
X0076124Y0037472D02*
X0076103Y0034426D01*
X0066674Y0033175D02*
X0055174Y0033175D01*
X0059861Y0030758D02*
X0064535Y0030758D01*
X0064535Y0029160D02*
X0059861Y0029160D01*
X0059446Y0037153D02*
X0064949Y0037153D01*
X0049789Y0038751D02*
X0093808Y0038751D01*
X0093808Y0040350D02*
X0049789Y0040350D01*
X0048794Y0041948D02*
X0093808Y0041948D01*
X0093808Y0043547D02*
X0047195Y0043547D01*
X0045597Y0045145D02*
X0093808Y0045145D01*
X0093808Y0046744D02*
X0014654Y0046744D01*
X0014654Y0048342D02*
X0093808Y0048342D01*
X0093808Y0049941D02*
X0014654Y0049941D01*
X0014654Y0051539D02*
X0093808Y0051539D01*
X0093808Y0053138D02*
X0014654Y0053138D01*
X0014654Y0054736D02*
X0093808Y0054736D01*
X0093808Y0056335D02*
X0014654Y0056335D01*
X0014654Y0057933D02*
X0093808Y0057933D01*
X0093808Y0059532D02*
X0014654Y0059532D01*
X0014654Y0061130D02*
X0093808Y0061130D01*
X0093808Y0062729D02*
X0014654Y0062729D01*
X0014654Y0064327D02*
X0093808Y0064327D01*
X0093808Y0065926D02*
X0014654Y0065926D01*
X0014654Y0067524D02*
X0093808Y0067524D01*
X0093808Y0069123D02*
X0014654Y0069123D01*
X0014654Y0070721D02*
X0093808Y0070721D01*
X0093808Y0072320D02*
X0014654Y0072320D01*
X0014654Y0073918D02*
X0093808Y0073918D01*
X0093808Y0075517D02*
X0015448Y0075517D01*
X0017046Y0077115D02*
X0093808Y0077115D01*
X0093808Y0078714D02*
X0018645Y0078714D01*
X0019161Y0080312D02*
X0093808Y0080312D01*
X0093808Y0081911D02*
X0019161Y0081911D01*
X0019161Y0083509D02*
X0093808Y0083509D01*
X0093808Y0085108D02*
X0019161Y0085108D01*
X0019161Y0086706D02*
X0093808Y0086706D01*
X0093808Y0088305D02*
X0019161Y0088305D01*
X0019161Y0089903D02*
X0093808Y0089903D01*
X0093808Y0091502D02*
X0019161Y0091502D01*
X0019161Y0093100D02*
X0093808Y0093100D01*
X0093808Y0094699D02*
X0019161Y0094699D01*
X0019161Y0096297D02*
X0093808Y0096297D01*
X0093808Y0097896D02*
X0019161Y0097896D01*
X0019161Y0099494D02*
X0093808Y0099494D01*
X0093808Y0101093D02*
X0019161Y0101093D01*
X0019161Y0102691D02*
X0093808Y0102691D01*
X0093808Y0104290D02*
X0019811Y0104290D01*
X0021410Y0105889D02*
X0093808Y0105889D01*
X0093808Y0107487D02*
X0023008Y0107487D01*
X0024607Y0109086D02*
X0093808Y0109086D01*
X0093808Y0110684D02*
X0062169Y0110684D01*
X0063280Y0112283D02*
X0093808Y0112283D01*
X0093808Y0113881D02*
X0063450Y0113881D01*
X0062738Y0115480D02*
X0093808Y0115480D01*
X0093808Y0117078D02*
X0010781Y0117078D01*
X0010781Y0115480D02*
X0024425Y0115480D01*
X0025422Y0113295D02*
X0060068Y0113295D01*
X0057962Y0110684D02*
X0032113Y0110684D01*
X0027815Y0110684D02*
X0026205Y0110684D01*
X0025422Y0113295D02*
X0016761Y0104633D01*
X0016761Y0080224D01*
X0012254Y0075718D01*
X0011856Y0078714D02*
X0010681Y0078714D01*
X0010681Y0080312D02*
X0013455Y0080312D01*
X0014361Y0081911D02*
X0010681Y0081911D01*
X0010681Y0083509D02*
X0014361Y0083509D01*
X0014361Y0085108D02*
X0011962Y0085108D01*
X0012764Y0086706D02*
X0014361Y0086706D01*
X0014361Y0088305D02*
X0012931Y0088305D01*
X0012931Y0089903D02*
X0014361Y0089903D01*
X0014361Y0091502D02*
X0012931Y0091502D01*
X0012931Y0093100D02*
X0014361Y0093100D01*
X0014361Y0094699D02*
X0012931Y0094699D01*
X0012931Y0096297D02*
X0014361Y0096297D01*
X0014361Y0097896D02*
X0012931Y0097896D01*
X0012931Y0099494D02*
X0014361Y0099494D01*
X0014361Y0101093D02*
X0012931Y0101093D01*
X0012931Y0102691D02*
X0014361Y0102691D01*
X0014361Y0104290D02*
X0012931Y0104290D01*
X0012931Y0105889D02*
X0014683Y0105889D01*
X0016220Y0107487D02*
X0012426Y0107487D01*
X0011148Y0109086D02*
X0017819Y0109086D01*
X0019417Y0110684D02*
X0010781Y0110684D01*
X0010781Y0112283D02*
X0021016Y0112283D01*
X0022614Y0113881D02*
X0010781Y0113881D01*
X0010781Y0118677D02*
X0093808Y0118677D01*
X0093808Y0120275D02*
X0010781Y0120275D01*
X0010781Y0121874D02*
X0093808Y0121874D01*
X0093808Y0123472D02*
X0010781Y0123472D01*
X0010781Y0125071D02*
X0093808Y0125071D01*
X0093808Y0126669D02*
X0010781Y0126669D01*
X0010781Y0128268D02*
X0093808Y0128268D01*
X0093444Y0129866D02*
X0010781Y0129866D01*
X0010781Y0131465D02*
X0091729Y0131465D01*
X0090014Y0133063D02*
X0010781Y0133063D01*
X0010781Y0134662D02*
X0088300Y0134662D01*
X0086585Y0136260D02*
X0010781Y0136260D01*
X0010781Y0137859D02*
X0084870Y0137859D01*
X0083155Y0139457D02*
X0010781Y0139457D01*
X0030934Y0044004D02*
X0026997Y0040067D01*
X0026997Y0032980D01*
X0029397Y0038751D02*
X0044989Y0038751D01*
X0044477Y0037153D02*
X0039196Y0037153D01*
X0039611Y0035554D02*
X0044062Y0035554D01*
X0044062Y0033956D02*
X0039611Y0033956D01*
X0034871Y0032192D02*
X0034871Y0025106D01*
X0038020Y0021956D01*
X0048257Y0021956D01*
X0051406Y0018807D01*
X0051406Y0013295D01*
X0047923Y0016372D02*
X0046604Y0016372D01*
X0044614Y0017970D02*
X0048848Y0017970D01*
X0056840Y0016372D02*
X0057572Y0016372D01*
X0043604Y0040350D02*
X0030674Y0040350D01*
X0048748Y0041994D02*
X0048748Y0041994D01*
X0029440Y0017970D02*
X0024142Y0017970D01*
X0026131Y0016372D02*
X0027450Y0016372D01*
D14*
X0054616Y0025447D03*
X0076435Y0053606D03*
X0086242Y0026205D03*
X0045460Y0055994D03*
X0016754Y0051090D03*
X0012473Y0088340D03*
X0025972Y0088376D03*
X0034871Y0105421D03*
X0065299Y0088467D03*
M02*
